<svg xmlns="http://www.w3.org/2000/svg" viewBox="0 0 391.72 120.51"><defs><style>.cls-1{fill:#0074be;}.cls-2{fill:#e77206;}.cls-3{fill:#e67206;}.cls-4{fill:#0073bb;}.cls-5{fill:#0073bc;}.cls-6{fill:#0071b8;}.cls-7{fill:#e57308;}.cls-8{fill:#e57309;}.cls-9{fill:#e47309;}.cls-10{fill:#e0730c;}.cls-11{fill:#d57315;}.cls-12{fill:#0474bb;}</style></defs><g id="Layer_2" data-name="Layer 2"><g id="Layer_1-2" data-name="Layer 1"><path class="cls-1" d="M0,60.1c0-8.68,0-17.36,0-26a7.5,7.5,0,0,1,4.12-7c7-4.12,14.23-8,21.23-12.2,4.61-2.77,9.35-5.33,14-8,3.51-2,7-4.2,10.58-6a6.38,6.38,0,0,1,6.3.09c6.82,3.89,13.61,7.84,20.41,11.75q6.89,4,13.78,7.91c4,2.3,8.06,4.52,12,6.89,2.59,1.54,3.62,4,3.61,7q0,25.43,0,50.86c0,.84-.08,1.67-.16,2.51a6.54,6.54,0,0,1-3.34,5.12c-5.44,3.23-11,6.3-16.47,9.47-6.14,3.54-12.24,7.15-18.38,10.7-3.89,2.25-7.8,4.5-11.74,6.66a5.89,5.89,0,0,1-5.86,0c-4.37-2.4-8.66-4.92-13-7.4L21,103.05C15.19,99.72,9.41,96.43,3.69,93A7,7,0,0,1,0,86.73C0,77.85,0,69,0,60.1Zm55,8.17c1.83,0,3.67,0,5.51,0,2,0,2.92-1,2.93-3q0-5.93,0-11.87c0-2.15-.84-3-3-3q-7.32,0-14.64,0c-2.18,0-3.05.89-3.06,3.06V65.06c0,2.2.94,3.15,3.12,3.18,1.68,0,3.36,0,5,0,0,.27,0,.55,0,.83,0,3.15,0,3.13,3.14,3.06.66,0,.94-.16.9-.86C55,70.26,55,69.26,55,68.27ZM19.08,60.19a27.84,27.84,0,0,0,1.06,6.33,23.94,23.94,0,0,0,6.73,10.54,2,2,0,0,0,3-.35c.77-1.1.56-2-.78-3.19A16.79,16.79,0,0,1,24,65.31c-2.17-8-.28-15,5.91-20.64a1.83,1.83,0,0,0,.67-1,1.88,1.88,0,0,0-.8-2.19,2.16,2.16,0,0,0-2.85.36,22.05,22.05,0,0,0-2.8,2.92A24.23,24.23,0,0,0,19.08,60.19Zm68.09-.65a23.21,23.21,0,0,0-6.36-16.18,6.42,6.42,0,0,0-2.45-2,2,2,0,0,0-2.51.82,1.87,1.87,0,0,0,.42,2.47,19.67,19.67,0,0,1,4,25,32.06,32.06,0,0,1-3.92,4.78,1.84,1.84,0,0,0,.28,2.76A2.12,2.12,0,0,0,79.51,77c.42-.42.88-.8,1.28-1.25A23.49,23.49,0,0,0,87.17,59.54Zm-61,1a14.93,14.93,0,0,0,6,11.55,2,2,0,0,0,3-.37,2.08,2.08,0,0,0-.61-2.83,11.35,11.35,0,0,1-3.69-5.32A12.18,12.18,0,0,1,34.77,50a2.07,2.07,0,0,0,.38-2.88,1.93,1.93,0,0,0-2.93-.24C28.17,50.13,26.16,54.36,26.17,60.55Zm53.92-1.09A15.47,15.47,0,0,0,74,46.87a1.93,1.93,0,0,0-2.93.28,2.07,2.07,0,0,0,.53,2.93,11.17,11.17,0,0,1,3,3.64A12.22,12.22,0,0,1,71.47,69a2.11,2.11,0,0,0-.41,2.7,1.89,1.89,0,0,0,2.81.51A15.53,15.53,0,0,0,80.09,59.46Zm-46.5.12a8.11,8.11,0,0,0,3.87,7.16,2.11,2.11,0,0,0,3.16-.44,2,2,0,0,0-.44-2.68c-3.48-3.11-3.49-4.93,0-8.21a2,2,0,0,0-2.51-3.22A8.25,8.25,0,0,0,33.59,59.58Zm39.11-.2a8.34,8.34,0,0,0-3.84-7c-1.23-.84-2.29-.75-3.13.36s-.49,2.06.7,3a6.12,6.12,0,0,1,1.28,1.06,4.51,4.51,0,0,1-1.23,6.63,2,2,0,0,0-.93,2.83,2,2,0,0,0,3,.68A8.44,8.44,0,0,0,72.7,59.38Zm-16.77,17v-.24c0-2.8,0-2.8-2.84-2.8-3,0-3,0-3,3s0,3,2.91,3S55.93,79.3,55.93,76.37ZM61,74.52c-1.12,0-2.23,0-3.35,0-.69,0-1,.12-1,.91a17.33,17.33,0,0,1,0,2.39c0,.62.19.83.82.82,1.51,0,3,0,4.54,0,3.27,0,3.26,0,3.12-3.28,0-.6-.17-.84-.81-.82C63.27,74.55,62.16,74.52,61,74.52Zm-16,0c-1.16,0-2.32,0-3.47,0-.59,0-.89.11-.85.78a23.35,23.35,0,0,1,0,2.51c0,.62.18.83.81.82,2.24,0,4.47,0,6.7,0,.59,0,.89-.11.84-.78a23.35,23.35,0,0,1,0-2.51c0-.61-.16-.84-.8-.81C47.19,74.55,46.12,74.52,45,74.52Z"/><path class="cls-2" d="M140.06,53.52c1.62-3.83,3.14-7.42,4.65-11,1-2.27,1.94-4.53,2.87-6.82a1,1,0,0,1,1.13-.79c1.76,0,3.52.05,5.27,0,.69,0,.88.21.88.89q0,12.7,0,25.42c0,.71-.26.87-.91.86-1.63,0-3.27-.06-4.91,0-.84,0-1.1-.22-1.09-1.07,0-3.39,0-6.79,0-10.19,0-.27,0-.54-.09-1.12-.63,1.32-1.16,2.36-1.62,3.42-1.17,2.66-2.32,5.32-3.44,8a1.4,1.4,0,0,1-1.39,1c-2.45.23-4.17-.08-5-3-.9-3.09-2.59-6-4-9-.35.39-.23.79-.23,1.14,0,3.28,0,6.56,0,9.84,0,.76-.19,1.06-1,1-1.68-.07-3.36,0-5,0-.68,0-.9-.19-.9-.88q0-12.7,0-25.42c0-.7.24-.88.9-.87q2.64.06,5.28,0a1,1,0,0,1,1.05.71q3.19,7.71,6.44,15.41C139.26,51.79,139.62,52.53,140.06,53.52Z"/><path class="cls-2" d="M349.4,48.08c2.12,0,4.24,0,6.36,0,.86,0,1.17.17,1.15,1.11-.05,5.06-2.54,8.73-6.65,11.32a13.55,13.55,0,0,1-13.7.81c-7.05-3.41-10.14-10.45-7.36-17.81a14.52,14.52,0,0,1,27.3,1.14c.28.81.16,1.14-.79,1.11-1.79-.06-3.59,0-5.39,0a1.1,1.1,0,0,1-1.16-.73c-2.63-5-9.21-4.84-12.19-1.24a7.54,7.54,0,0,0,2.57,11.52,7.43,7.43,0,0,0,8-1.18c.2-.18.47-.41.38-.69s-.47-.2-.73-.2c-1.56,0-3.12,0-4.68,0-.63,0-.83-.21-.81-.83,0-1.12.06-2.24,0-3.36,0-.73.19-1,.94-1C344.93,48.11,347.17,48.08,349.4,48.08Z"/><path class="cls-3" d="M391.71,48.52c.17,7.82-6.44,14.17-14.37,14.17a14.42,14.42,0,0,1-14.43-14.43c.08-7.36,6.72-13.88,14.52-13.86C384.86,34.41,392,40.74,391.71,48.52Zm-7,.08a7.24,7.24,0,0,0-7.2-7.47,7.41,7.41,0,1,0-.16,14.81A7.33,7.33,0,0,0,384.73,48.6Z"/><path class="cls-2" d="M267.84,62.05c-2.09,0-4,0-6,0-.71,0-.81-.53-1.05-1-1.3-2.37-2.62-4.73-3.9-7.12a1,1,0,0,0-1-.64c-1.16,0-2.32,0-3.48,0-.69,0-.88.25-.87.91,0,2.24,0,4.47,0,6.71,0,.79-.14,1.14-1,1.11-1.68-.07-3.36,0-5,0-.63,0-.92-.12-.92-.85q0-12.7,0-25.42c0-.66.18-.9.87-.9,4,0,8-.12,12,.07,3.44.16,6.56,1.23,8.52,4.46s1.86,9.36-2.67,12.18c-.72.45-.74.69-.31,1.43C264.64,55.94,266.17,58.91,267.84,62.05ZM251.56,44.16c0,1,0,1.91,0,2.87,0,.51.1.85.71.82a39.89,39.89,0,0,0,4.89-.15,3.3,3.3,0,0,0,3.06-3.91,3.53,3.53,0,0,0-3.55-3.33c-1.4,0-2.79,0-4.19,0-.75,0-1,.25-.93,1C251.6,42.32,251.56,43.24,251.56,44.16Z"/><path class="cls-2" d="M277.47,52.67c.48,0,1,0,1.44,0,1.19-.09,2.19-.12,2,1.62-.08.7.56,1.28,1.26,1.62a7.82,7.82,0,0,0,5.13.5c.69-.15,1.42-.42,1.51-1.32a1.67,1.67,0,0,0-1.21-1.73c-1.35-.59-2.71-1.16-4.11-1.63a23.68,23.68,0,0,1-6-2.85A7.51,7.51,0,0,1,276.86,37c3-2.4,6.42-2.82,10-2.47a11.79,11.79,0,0,1,5.64,2.12A8,8,0,0,1,296,44.13c0,.43-.11.67-.6.66-1.84,0-3.68,0-5.52,0-.57,0-.67-.28-.64-.74a3,3,0,0,0-2.2-3.31c-1.56-.5-3.21-.71-4.68.44-.93.72-.93,1.51,0,2.19,1.69,1.19,3.7,1.63,5.6,2.33,2.65,1,5.16,2.18,6.89,4.51a7.43,7.43,0,0,1-3.67,11.51,16.35,16.35,0,0,1-11.69-.15c-3.91-1.56-5.69-4.06-5.42-8.17,0-.57.22-.76.77-.74C275.71,52.69,276.59,52.67,277.47,52.67Z"/><path class="cls-2" d="M160.89,48.49c0-4.15,0-8.31,0-12.47,0-.91.27-1.13,1.15-1.12q9.3.06,18.59,0c.89,0,1.18.21,1.13,1.12a43.35,43.35,0,0,0,0,4.56c.06,1-.31,1.1-1.16,1.09-3.88,0-7.75,0-11.63,0-.91,0-1.15.26-1.14,1.15,0,2.92,0,2.92,2.84,2.92,2,0,4.08,0,6.12,0,.65,0,.93.15.9.86,0,1.48,0,3,0,4.43,0,.74-.23,1-.95,1-2.56,0-5.12,0-7.68,0-.89,0-1.26.17-1.24,1.17,0,2.45,0,2.45,2.48,2.45,3.48,0,6.95,0,10.43,0,.76,0,1.06.17,1,1-.06,1.6,0,3.2,0,4.79,0,.56-.16.78-.74.77-6.44,0-12.88,0-19.31,0-.92,0-.79-.55-.79-1.11Z"/><path class="cls-2" d="M217.74,48.36c0-4.07,0-8.15,0-12.23,0-.87.13-1.25,1.15-1.24q9.3.07,18.59,0c.87,0,1.19.18,1.14,1.11-.08,1.55-.07,3.12,0,4.67,0,.82-.26,1-1,1-4,0-7.91,0-11.87,0-.83,0-1.08.21-1.08,1.06,0,3,0,3,3,3,2,0,4,0,6,0,.65,0,.93.16.9.87,0,1.47-.05,3,0,4.43,0,.76-.25.95-1,.94-2.55,0-5.11,0-7.67,0-.9,0-1.25.17-1.23,1.17.06,2.45,0,2.45,2.44,2.45,3.44,0,6.88,0,10.32,0,1,0,1.28.3,1.23,1.28-.09,1.43-.05,2.87,0,4.31,0,.68-.11,1-.9,1q-9.54,0-19.07,0c-.8,0-.9-.33-.9-1C217.75,56.83,217.74,52.6,217.74,48.36Z"/><path class="cls-2" d="M314.43,55.2c2.4,0,4.46,0,6.53,0,.89,0,1.18.24,1.14,1.14-.08,1.64-.05,3.28,0,4.92,0,.62-.19.83-.82.83q-9.06,0-18.1,0c-.55,0-.85-.14-.78-.73a.24.24,0,0,0,0-.12c-.19-4.2-.14-4.15,2.89-7s6.24-5.46,9-8.57a2.78,2.78,0,0,0,.61-3.28,2.63,2.63,0,0,0-2.83-1.12,2.56,2.56,0,0,0-2.48,2.33c-.11,1.29-.62,1.62-1.84,1.5a29.1,29.1,0,0,0-4.07,0c-.89,0-1.09-.29-1-1.09.47-5.65,3.77-8.91,9.24-9.45a9.14,9.14,0,0,1,8.47,3.5c2.58,3.25,2.31,7.38.17,10.7C319,51.12,316.65,52.86,314.43,55.2Z"/><path class="cls-2" d="M199.78,34.92c3.6,0,7.2,0,10.79,0,1,0,1.2.31,1.16,1.22-.06,1.55,0,3.11,0,4.67,0,.67-.19.9-.87.89-2.16,0-4.32,0-6.48,0-.9,0-1.13.24-1.13,1.14,0,6,0,12.06,0,18.09,0,.92-.2,1.27-1.18,1.22a45.47,45.47,0,0,0-4.67,0c-.9,0-1.15-.23-1.14-1.13,0-6,0-12,0-18,0-1-.21-1.4-1.31-1.35-2.08.1-4.16,0-6.23.05-.82,0-1-.27-1-1,0-1.56.06-3.12,0-4.68,0-.84.24-1.08,1.08-1.07C192.51,34.94,196.15,34.92,199.78,34.92Z"/><path class="cls-4" d="M151.15,78.73c-.63,1.57-1.27,3.13-1.89,4.7-.2.53-.33,1-1.11,1s-1.28,0-1.61-.84a18.2,18.2,0,0,0-2.25-4.77c0,1.6-.06,3.21,0,4.81.06,1.08-.41,1.28-1.33,1.21s-1.58.16-1.56-1.15c.07-3.47,0-6.94,0-10.42,0-.9.29-1.16,1.18-1.14,2.26,0,2.24,0,3,2.08.68,1.77,1.41,3.52,2.13,5.31.52-.21.55-.65.69-1,.74-1.85,1.49-3.69,2.15-5.56a1.08,1.08,0,0,1,1.21-.84c2.51,0,2.51,0,2.51,2.4,0,3.08,0,6.16,0,9.23,0,1.38-.88,1-1.61,1.07s-1.39,0-1.32-1.09c.09-1.63,0-3.27,0-4.9Z"/><path class="cls-4" d="M226.26,79.79c.81-2,1.56-3.82,2.25-5.64.78-2.09,1.37-2.43,3.56-2,.5.09.54.37.54.75,0,3.72,0,7.43,0,11.15,0,.56-.21.76-.77.8-2,.15-2.08.12-2.08-1.92V78.57c-1.14,1.74-1.45,3.45-2.17,5a1.5,1.5,0,0,1-2.69,0c-.74-1.54-1.06-3.26-2.21-4.71,0,1.47,0,3,0,4.42,0,.49.28,1.18-.32,1.41a4,4,0,0,1-2.25,0c-.33-.06-.26-.45-.26-.72,0-3.68,0-7.36,0-11,0-.6.19-.86.83-.84,2.85.11,2.3-.56,3.39,2.24C224.73,76.09,225.45,77.81,226.26,79.79Z"/><path class="cls-4" d="M318,79c0-1.94.06-3.89,0-5.83-.06-1.44.33-1.16,1.64-1.09.87,0,1.34-.21,1.33.57-.07,3.51-.05,7.59,0,11.11,0,.84-.3,1-1.11,1.11a2.5,2.5,0,0,1-2.69-1.45,37.59,37.59,0,0,0-3.68-5.3c0,1.86-.07,3.72,0,5.57.06,1.18-.58,1.21-1.41,1.15s-1.72.33-1.69-1.12c.07-3.51,0-7,0-10.54,0-.77.25-1,1-1.06a2.45,2.45,0,0,1,2.66,1.43c1.09,1.92,2.38,3.73,3.58,5.58Z"/><path class="cls-5" d="M288.4,72.12c1.26.06,2.69-.17,4.07.47a4.21,4.21,0,0,1,1.13,7,1.08,1.08,0,0,0-.3,1.58c.5.85.94,1.74,1.38,2.63.3.61.32,1-.59,1-2.47.07-2.45.08-3.49-2.24-.36-.8-.35-2.06-1.85-1.85-.56.09-.78.23-.75.79s-.06,1.36,0,2c.1,1-.36,1.38-1.31,1.25a1.09,1.09,0,0,0-.36,0c-1.13.18-1.51-.25-1.48-1.43.07-3.39.05-6.78,0-10.18,0-.82.23-1.16,1.08-1.09S287.48,72.12,288.4,72.12Zm-.66,4.72c0,.37-.13.93.84,1.15a5.19,5.19,0,0,0,2.71-.25,1.18,1.18,0,0,0,.67-1.39c-.14-1-1.12-1.51-2.61-1.51C288.17,74.85,287.77,75.08,287.74,76.84Z"/><path class="cls-5" d="M178.82,78.38c0-1.75,0-3.51,0-5.27,0-.67.13-1,.91-1,1.64.06,3.28,0,4.91.05a4.42,4.42,0,0,1,4.05,5.93,3,3,0,0,1-1.21,1.57c-.65.44-.62.84-.27,1.45.52.89,1,1.82,1.42,2.75.28.58.26.92-.57,1-2.4.12-2.5.06-3.51-2.19-.38-.83-.38-2.16-1.95-1.88-.51.09-.69.25-.67.74s0,1,0,1.43c0,1.76-1,2.46-2.69,1.86-.55-.2-.4-.63-.4-1C178.81,82,178.82,80.18,178.82,78.38Zm3.1-2.18c0,1.8.26,2,1.86,1.84.36,0,.71-.1,1.06-.17a1.2,1.2,0,0,0,1-1.49c-.08-1-1.09-1.61-2.56-1.56C182.23,74.86,181.61,75.17,181.92,76.2Z"/><path class="cls-4" d="M338.42,80.44V81c0,2.15-.43,2.7-2.54,3.3-3.4,1-5.87.29-7.81-2.44a6.21,6.21,0,0,1-.42-6.59,5.93,5.93,0,0,1,5.09-3.46,7.08,7.08,0,0,1,5.17,1.44c.48.37.65.64.15,1.12a3.23,3.23,0,0,0-.63.87c-.39.73-.8.85-1.48.26a3.82,3.82,0,0,0-4.14-.44,3.74,3.74,0,0,0-1.56,4A3.44,3.44,0,0,0,333,81.86a4,4,0,0,0,2.09-.31c.39-.12.46-.38.45-.74s-.29-.54-.64-.5c-1.11.13-1-.62-.95-1.31s-.05-1.62,1.17-1.38a2.57,2.57,0,0,0,.48,0C338.42,77.62,338.42,77.62,338.42,80.44Z"/><path class="cls-4" d="M130.57,84.89a8.08,8.08,0,0,1-4.79-1.62.89.89,0,0,1-.42-1.13,9.45,9.45,0,0,1,.78-2c.25-.18.56.21.78.42A5.15,5.15,0,0,0,130,82.09a2.94,2.94,0,0,0,.83,0c.5-.11,1.1-.21,1.2-.83s-.42-1-.93-1.23a20,20,0,0,0-2.13-.77c-2.08-.64-3.05-1.81-3-3.63s1.23-3.16,3.33-3.63a7.56,7.56,0,0,1,5.51,1c.86.48.31,1.11.15,1.65-.43,1.45-.47,1.47-1.68.64a4,4,0,0,0-2.81-.8c-.52.06-1,.25-1.08.91a1,1,0,0,0,.77,1.08c.78.29,1.57.57,2.36.84,2,.7,2.95,1.9,2.87,3.74a3.85,3.85,0,0,1-3.28,3.58C131.61,84.81,131.08,84.83,130.57,84.89Z"/><path class="cls-4" d="M166.67,82.84c-.44,0-.89,0-1.32,0a1.22,1.22,0,0,0-1.48,1c-.24.81-2.47,1.37-3.14.83-.34-.26-.17-.6-.06-.87q2.18-5.61,4.38-11.2a.92.92,0,0,1,.34-.45,2.7,2.7,0,0,1,3.33,1.18c1.34,3.48,2.62,7,3.95,10.48.24.65.17,1-.62,1-.55,0-1.11,0-1.67,0a.8.8,0,0,1-.82-.37c-.29-.57-.19-1.45-1-1.63a8.6,8.6,0,0,0-1.9,0Zm0-6.84c-.33,1-.53,1.64-.77,2.29-.79,2.17-.79,2.14,1.48,2,.68,0,.69-.29.5-.81C167.47,78.44,167.12,77.39,166.64,76Z"/><path class="cls-5" d="M269.53,78.29c0-1.72,0-3.44,0-5.16,0-.75.17-1.06,1-1,2.44,0,4.88.07,7.32,0,1.1,0,1,.61,1,1.3s.19,1.48-1,1.42c-1.44-.08-2.88,0-4.32,0-.83,0-.9.41-.87,1s-.12,1.26.85,1.18c.56,0,1.12,0,1.68,0a1.6,1.6,0,0,1,1.46,2.46c-.19.37-.49.35-.81.35a17.36,17.36,0,0,1-2,0c-.87-.08-1.19.19-1.17,1.12s.31,1.09,1.12,1c1.36,0,2.72,0,4.08,0,.65,0,.9.18.92.87.05,1.82.08,1.82-1.76,1.82-2.16,0-4.32,0-6.48,0-.73,0-1-.21-1-.95C269.56,81.88,269.53,80.08,269.53,78.29Z"/><path class="cls-5" d="M238.81,78.33c0-1.8,0-3.6,0-5.4,0-.6.18-.85.82-.84,2.51,0,5,0,7.55,0,1.15,0,.88.76.91,1.38s.12,1.38-1,1.33c-1.43-.07-2.88,0-4.31,0-.81,0-.94.37-.9,1s-.14,1.27.84,1.2c.64,0,1.29.05,1.92,0,1.09-.13,1.35.36,1.33,1.38s-.14,1.65-1.36,1.46c-.47-.07-1,0-1.44,0-1.09-.17-1.4.29-1.3,1.33.05.6.22.84.85.83,1.43,0,2.88,0,4.31,0,1,0,1,.55.92,1.21s.44,1.53-.86,1.5c-2.48,0-4.95,0-7.43,0-.7,0-.88-.26-.87-.91C238.83,81.92,238.81,80.12,238.81,78.33Z"/><path class="cls-5" d="M198,79.81c0-1.32,0-2.63,0-4,0-.67-.21-1-.89-.88a3.84,3.84,0,0,1-.48,0c-1.59,0-2.16-.84-1.66-2.4.15-.47.49-.46.85-.46,2.51,0,5,0,7.54,0,.58,0,.84.17.88.81.13,2,.15,2.1-1.92,2-1,0-1.27.31-1.24,1.28.07,2.48,0,5,0,7.43,0,.9-.29,1.17-1.17,1.15-2.34,0-1.93.09-2-1.89C198,81.89,198,80.85,198,79.81Z"/><path class="cls-5" d="M260.41,79.8c0,1.36,0,2.72,0,4.08,0,.67-.25,1-.91.92h-.12c-2.56,0-2.08.16-2.1-2s0-4.56,0-6.83c0-.79-.23-1.12-1-1-.24,0-.49,0-.72,0-1.1.16-1.41-.28-1.43-1.39s.33-1.57,1.54-1.51c2.24.1,4.48,0,6.72,0,.74,0,.95.24,1,1,0,1.87,0,1.91-1.92,1.9-.76,0-1.15.19-1,1V79.8Z"/><path class="cls-6" d="M304.34,78.48c0,1.76,0,3.51,0,5.27,0,.77-.25,1-1,1.06-2.26.08-2.25.11-2.25-2.09,0-3.11,0-6.22,0-9.33,0-1,.26-1.33,1.28-1.3,2.32.09,2-.18,2,2C304.35,75.53,304.34,77,304.34,78.48Z"/><path class="cls-7" d="M50.94,68.23c-1.68,0-3.36,0-5,0-2.18,0-3.11-1-3.12-3.18V53.42c0-2.17.88-3.06,3.06-3.06q7.32,0,14.64,0c2.12,0,3,.87,3,3q0,5.94,0,11.87c0,2-.92,3-2.93,3-1.84,0-3.68,0-5.51,0A7.87,7.87,0,0,0,50.94,68.23Zm2.14-4.07c1.8,0,3.59,0,5.39,0,.53,0,.9,0,.9-.74,0-2.75,0-5.51,0-8.26,0-.58-.22-.75-.77-.75q-5.45,0-10.89,0c-.6,0-.85.16-.84.81q0,4.07,0,8.14c0,.65.24.81.84.8C49.49,64.14,51.29,64.16,53.08,64.16Z"/><path class="cls-8" d="M19.08,60.19a24.23,24.23,0,0,1,5.07-15.38A22.05,22.05,0,0,1,27,41.89a2.16,2.16,0,0,1,2.85-.36,1.88,1.88,0,0,1,.8,2.19,1.83,1.83,0,0,1-.67,1C23.74,50.34,21.85,57.29,24,65.31a16.79,16.79,0,0,0,5.1,8.21c1.34,1.21,1.55,2.09.78,3.19a2,2,0,0,1-3,.35,23.94,23.94,0,0,1-6.73-10.54A27.84,27.84,0,0,1,19.08,60.19Z"/><path class="cls-8" d="M87.17,59.54A23.49,23.49,0,0,1,80.79,75.7c-.4.45-.86.83-1.28,1.25a2.12,2.12,0,0,1-2.83.18,1.84,1.84,0,0,1-.28-2.76,32.06,32.06,0,0,0,3.92-4.78,19.67,19.67,0,0,0-4-25,1.87,1.87,0,0,1-.42-2.47,2,2,0,0,1,2.51-.82,6.42,6.42,0,0,1,2.45,2A23.21,23.21,0,0,1,87.17,59.54Z"/><path class="cls-8" d="M26.17,60.55c0-6.19,2-10.42,6-13.66a1.93,1.93,0,0,1,2.93.24A2.07,2.07,0,0,1,34.77,50,12.18,12.18,0,0,0,30.9,63.58a11.35,11.35,0,0,0,3.69,5.32,2.08,2.08,0,0,1,.61,2.83,2,2,0,0,1-3,.37A14.93,14.93,0,0,1,26.17,60.55Z"/><path class="cls-8" d="M80.09,59.46a15.53,15.53,0,0,1-6.22,12.78,1.89,1.89,0,0,1-2.81-.51,2.11,2.11,0,0,1,.41-2.7,12.22,12.22,0,0,0,3.17-15.31,11.17,11.17,0,0,0-3-3.64,2.07,2.07,0,0,1-.53-2.93A1.93,1.93,0,0,1,74,46.87,15.47,15.47,0,0,1,80.09,59.46Z"/><path class="cls-8" d="M33.59,59.58a8.25,8.25,0,0,1,4-7.39,2,2,0,0,1,2.51,3.22c-3.45,3.28-3.44,5.1,0,8.21a2,2,0,0,1,.44,2.68,2.11,2.11,0,0,1-3.16.44A8.11,8.11,0,0,1,33.59,59.58Z"/><path class="cls-9" d="M72.7,59.38a8.44,8.44,0,0,1-4.16,7.48,2,2,0,0,1-3-.68,2,2,0,0,1,.93-2.83,4.51,4.51,0,0,0,1.23-6.63,6.12,6.12,0,0,0-1.28-1.06c-1.19-.9-1.45-2-.7-3s1.9-1.2,3.13-.36A8.34,8.34,0,0,1,72.7,59.38Z"/><path class="cls-10" d="M55.93,76.37c0,2.93,0,2.93-3,2.93s-2.91,0-2.91-3,0-3,3-3c2.84,0,2.84,0,2.84,2.8Z"/><path class="cls-7" d="M61,74.52c1.12,0,2.23,0,3.35,0,.64,0,.78.22.81.82.14,3.29.15,3.28-3.12,3.28-1.51,0-3,0-4.54,0-.63,0-.85-.2-.82-.82a17.33,17.33,0,0,0,0-2.39c-.07-.79.28-.93,1-.91C58.81,74.55,59.92,74.52,61,74.52Z"/><path class="cls-2" d="M45,74.52c1.08,0,2.15,0,3.23,0,.64,0,.83.2.8.81a23.35,23.35,0,0,0,0,2.51c0,.67-.25.79-.84.78-2.23,0-4.46,0-6.7,0-.63,0-.84-.2-.81-.82a23.35,23.35,0,0,0,0-2.51c0-.67.26-.8.85-.78C42.72,74.54,43.88,74.52,45,74.52Z"/><path class="cls-11" d="M50.94,68.23a7.87,7.87,0,0,1,4.06,0c0,1,0,2,0,3,0,.7-.24.85-.9.86C51,72.19,51,72.21,51,69.06,51,68.78,51,68.5,50.94,68.23Z"/><path class="cls-12" d="M53.08,64.16c-1.79,0-3.59,0-5.38,0-.6,0-.85-.15-.84-.8q0-4.08,0-8.14c0-.65.24-.81.84-.81q5.44,0,10.89,0c.55,0,.78.17.77.75,0,2.75,0,5.51,0,8.26,0,.71-.37.74-.9.74C56.67,64.15,54.88,64.16,53.08,64.16Z"/></g></g></svg>